<?xml version="1.0" encoding="UTF-8" standalone="no"?>
<svg
   xmlns:dc="http://purl.org/dc/elements/1.1/"
   xmlns:cc="http://creativecommons.org/ns#"
   xmlns:rdf="http://www.w3.org/1999/02/22-rdf-syntax-ns#"
   xmlns:svg="http://www.w3.org/2000/svg"
   xmlns="http://www.w3.org/2000/svg"
   xmlns:sodipodi="http://sodipodi.sourceforge.net/DTD/sodipodi-0.dtd"
   xmlns:inkscape="http://www.inkscape.org/namespaces/inkscape"
   width="210mm"
   height="297mm"
   viewBox="0 0 210 297"
   version="1.1"
   id="svg8"
   inkscape:version="1.0.2-2 (e86c870879, 2021-01-15)"
   sodipodi:docname="Logo.svg">
  <defs
     id="defs2">
    <rect
       x="-415.77381"
       y="178.78274"
       width="122.46428"
       height="39.6875"
       id="rect1154" />
    <rect
       x="-415.7738"
       y="178.78275"
       width="122.46428"
       height="39.6875"
       id="rect1154-4" />
    <rect
       x="-415.7738"
       y="178.78275"
       width="122.46428"
       height="39.6875"
       id="rect1408" />
    <rect
       x="-415.7738"
       y="178.78275"
       width="122.46428"
       height="39.6875"
       id="rect1154-4-5" />
    <rect
       x="-415.7738"
       y="178.78275"
       width="122.46428"
       height="39.6875"
       id="rect1444" />
    <rect
       x="-415.7738"
       y="178.78275"
       width="122.46428"
       height="39.6875"
       id="rect1154-4-5-0" />
    <rect
       x="-415.7738"
       y="178.78275"
       width="122.46428"
       height="39.6875"
       id="rect1480" />
  </defs>
  <sodipodi:namedview
     id="base"
     pagecolor="#505050"
     bordercolor="#666666"
     borderopacity="1.0"
     inkscape:pageopacity="0"
     inkscape:pageshadow="2"
     inkscape:zoom="0.49497475"
     inkscape:cx="-296.72843"
     inkscape:cy="554.24663"
     inkscape:document-units="mm"
     inkscape:current-layer="layer2"
     inkscape:document-rotation="0"
     showgrid="false"
     inkscape:pagecheckerboard="true"
     inkscape:window-width="2558"
     inkscape:window-height="1000"
     inkscape:window-x="2553"
     inkscape:window-y="0"
     inkscape:window-maximized="0" />
  <metadata
     id="metadata5">
    <rdf:RDF>
      <cc:Work
         rdf:about="">
        <dc:format>image/svg+xml</dc:format>
        <dc:type
           rdf:resource="http://purl.org/dc/dcmitype/StillImage" />
        <dc:title />
      </cc:Work>
    </rdf:RDF>
  </metadata>
  <g
     inkscape:label="Background"
     inkscape:groupmode="layer"
     id="layer1">
    <rect
       style="fill:#ffffff;stroke-width:0.496001;stroke-opacity:0.996078"
       id="rect833"
       width="100"
       height="100"
       x="-136.49899"
       y="14.269586"
       rx="1"
       ry="0.048"
       inkscape:export-xdpi="1000"
       inkscape:export-ydpi="1000" />
  </g>
  <g
     inkscape:groupmode="layer"
     id="layer2"
     inkscape:label="Circles">
    <path
       id="path1242-6"
       style="fill:#ffffff;fill-opacity:1;stroke:none;stroke-width:0.979809"
       d="m 133.29554,13.464814 a 4.899061,4.899061 0 0 0 -4.87952,4.899304 4.899061,4.899061 0 0 0 0,0.02248 v 45.026617 c 0,7.9e-4 0.017,9.9e-4 0.0188,0.002 -0.003,7.9e-4 -0.0188,9.9e-4 -0.0188,0.002 v 45.026605 a 4.899061,4.899061 0 0 0 0,0.0225 4.899061,4.899061 0 0 0 4.87952,4.89922 4.899061,4.899061 0 0 0 0.0194,0 4.899061,4.899061 0 0 0 0.0231,0 h 45.02602 c 7.8e-4,0 9.9e-4,-0.0169 0.002,-0.0186 7.8e-4,0.002 9.9e-4,0.0186 0.002,0.0186 h 45.02602 a 4.899061,4.899061 0 0 0 0.0231,0 4.899061,4.899061 0 0 0 0.0194,0 4.899061,4.899061 0 0 0 4.87949,-4.89922 4.899061,4.899061 0 0 0 0,-0.0225 V 63.417295 c 0,-7.2e-4 -0.0171,-9.3e-4 -0.0189,-0.002 0.002,-7.8e-4 0.0189,-9.9e-4 0.0189,-0.002 v -45.02653 a 4.899061,4.899061 0 0 0 0,-0.02248 4.899061,4.899061 0 0 0 -4.87949,-4.899303 4.899061,4.899061 0 0 0 -0.0194,0 4.899061,4.899061 0 0 0 -0.0231,0 h -45.02605 c -7.8e-4,0 -9.9e-4,0.01648 -0.002,0.01818 -7.8e-4,-0.002 -9.9e-4,-0.01818 -0.002,-0.01818 h -45.02607 a 4.899061,4.899061 0 0 0 -0.0231,0 4.899061,4.899061 0 0 0 -0.0194,0 z"
       inkscape:export-filename="C:\Software\GUI\assets\MSPlotterIcon.png"
       inkscape:export-xdpi="1000"
       inkscape:export-ydpi="1000" />
    <path
       id="path835-1-04-6-8"
       style="fill:#000000;fill-opacity:1;stroke:none;stroke-width:1.19736;stroke-opacity:1"
       d="m 132.70991,13.415136 a 4.9068085,4.9068085 0 0 0 -4.34392,4.34443 v 40.056989 a 44.401324,44.401321 0 0 0 44.40142,-44.401419 z m 51.25475,0 a 44.401321,44.401324 0 0 0 44.40143,44.401419 V 17.762156 a 4.9068085,4.9068085 0 0 0 -4.34392,-4.34702 z m -55.59867,55.598669 v 40.054405 a 4.9068085,4.9068085 0 0 0 4.34392,4.34702 h 40.0575 A 44.401321,44.401324 0 0 0 128.36599,69.013805 Z m 100.0001,0 a 44.401324,44.401321 0 0 0 -44.40143,44.401425 h 40.05751 a 4.9068085,4.9068085 0 0 0 4.34392,-4.34908 z"
       inkscape:export-filename="C:\Software\GUI\assets\MSPlotterIcon.png"
       inkscape:export-xdpi="1000"
       inkscape:export-ydpi="1000" />
    <rect
       style="fill:#ff0c0c;fill-opacity:0.559064;stroke:none;stroke-width:1"
       id="rect1150"
       width="101.29762"
       height="63.877975"
       x="-165.93155"
       y="198.05951"
       rx="1.0000006"
       ry="0.047999915" />
    <rect
       style="fill:#ffffff;fill-opacity:0;stroke-width:0.0496001;stroke-opacity:0.996078"
       id="rect833-3"
       width="9.9999971"
       height="9.9999971"
       x="-121.05974"
       y="236.96722"
       rx="0.099999972"
       ry="0.0047999988"
       inkscape:export-xdpi="1000"
       inkscape:export-ydpi="1000"
       inkscape:export-filename="C:\Software\GUI\assets\SetupIcon.png" />
    <path
       id="path835-1-04"
       style="fill:#000000;fill-opacity:1;stroke:none;stroke-width:1.19736;stroke-opacity:1"
       d="m -80.900411,14.269585 a 44.401321,44.401324 0 0 0 44.40142,44.401424 V 14.269585 Z"
       inkscape:export-xdpi="1000"
       inkscape:export-ydpi="1000" />
    <path
       id="path835-1-04-8"
       style="fill:#000000;fill-opacity:1;stroke:none;stroke-width:1.19736;stroke-opacity:1"
       d="M -136.49899,58.671006 A 44.401324,44.401321 0 0 0 -92.097571,14.269585 H -136.49899 Z"
       inkscape:export-xdpi="1000"
       inkscape:export-ydpi="1000" />
    <path
       id="path835-1-04-2"
       style="fill:#000000;fill-opacity:1;stroke:none;stroke-width:1.19736;stroke-opacity:1"
       d="M -92.097571,114.26959 A 44.401321,44.401324 0 0 0 -136.49899,69.868162 v 44.401428 z"
       inkscape:export-xdpi="1000"
       inkscape:export-ydpi="1000" />
    <path
       id="path835-1-04-8-0"
       style="fill:#000000;fill-opacity:1;stroke:none;stroke-width:1.19736;stroke-opacity:1"
       d="m -36.498991,69.868165 a 44.401324,44.401321 0 0 0 -44.40142,44.401425 h 44.40142 z"
       inkscape:export-xdpi="1000"
       inkscape:export-ydpi="1000" />
    <path
       id="path835-1-04-6"
       style="fill:#000000;fill-opacity:1;stroke:none;stroke-width:1.19736;stroke-opacity:1"
       d="m 60.656101,15.748301 a 44.401321,44.401324 0 0 0 44.401419,44.40143 v -44.40143 z"
       inkscape:export-xdpi="1000"
       inkscape:export-ydpi="1000" />
    <path
       id="path835-1-04-8-6"
       style="fill:#000000;fill-opacity:1;stroke:none;stroke-width:1.19736;stroke-opacity:1"
       d="M 5.0575211,60.149731 A 44.401324,44.401321 0 0 0 49.458941,15.748301 H 5.0575211 Z"
       inkscape:export-xdpi="1000"
       inkscape:export-ydpi="1000" />
    <path
       id="path835-1-04-2-8"
       style="fill:#000000;fill-opacity:1;stroke:none;stroke-width:1.19736;stroke-opacity:1"
       d="M 49.458941,115.74831 A 44.401321,44.401324 0 0 0 5.0575211,71.346881 v 44.401429 z"
       inkscape:export-xdpi="1000"
       inkscape:export-ydpi="1000" />
    <path
       id="path835-1-04-8-0-7"
       style="fill:#000000;fill-opacity:1;stroke:none;stroke-width:1.19736;stroke-opacity:1"
       d="M 105.05752,71.346891 A 44.401324,44.401321 0 0 0 60.656101,115.74831 h 44.401419 z"
       inkscape:export-xdpi="1000"
       inkscape:export-ydpi="1000" />
    <g
       id="g1148"
       transform="translate(-800.26974,18.529883)"
       inkscape:export-filename="C:\Software\GUI\assets\SetupIcon.png"
       inkscape:export-xdpi="1000"
       inkscape:export-ydpi="1000">
      <path
         stroke="#777777"
         d="m 683.68082,219.33628 h 4.23333 m -2.91042,4.23333 h 0.52917 m -2.11667,0.26459 h 0.52917 m -1.05833,2.64583 h 0.26458"
         id="path4"
         style="stroke-width:0.264583" />
      <path
         stroke="#868686"
         d="m 683.41623,219.60086 h 0.26459 m 3.96875,0 h 0.26458 m -4.49792,0.26459 h 0.26459 m 3.96875,0 h 0.26458 m -4.49792,0.26458 h 0.26459 m 3.96875,0 h 0.26458 m -4.49792,0.26458 h 0.26459 m 3.96875,0 h 0.26458 m -4.49792,0.26459 h 0.26459 m 3.96875,0 h 0.26458 m -4.49792,0.26458 h 0.26459 m 3.96875,0 h 0.26458 m -4.49792,0.26458 h 0.26459 m 3.96875,0 h 0.26458 m -5.82083,0.26459 h 1.32291 m 4.23334,0 h 0.26458 m -6.08542,0.26458 h 0.26459 m 1.32291,0 h 0.26459 m 3.96875,0 h 0.26458 m -6.35,0.26458 h 0.26458 m 1.5875,0 h 0.26459 m 3.96875,0 h 0.26458 m -6.61458,0.26459 h 0.26458 m 1.85208,0 h 0.26459 m 3.96875,0 h 0.26458 m -7.9375,0.26458 h 1.85208 m 1.5875,0 h 0.26459 m 3.96875,0 h 0.26458 m -7.67292,0.26458 h 0.26459 m 2.91041,0 h 0.26459 m 3.96875,0 h 0.26458 m -7.40833,0.52917 h 1.32291 m 1.5875,0 h 4.23334 m 0.26458,0 h 0.26458 m -7.67291,0.26458 h 0.26458 m 7.14375,0 h 0.26458 m -7.67291,0.26459 h 0.26458 m 5.29167,0 h 1.32291 m 0.52917,0 h 0.26458 m -7.67291,0.26458 h 0.26458 m 7.14375,0 h 0.26458 m -7.67291,0.26458 h 0.26458 m 1.5875,0 h 0.26458 m -2.11666,0.26459 h 0.26458 m 1.32292,0 h 0.26458 m 0.26458,0 h 0.26459 m -2.38125,0.26458 h 0.26458 m 1.5875,0 h 0.26458 m -2.11666,0.26458 h 0.26458 m 1.32292,0 h 0.26458 m -1.85208,0.26459 h 0.26458 m 1.5875,0 h 0.26458 m 3.175,0 h 0.79375 m -6.08541,0.26458 h 0.26458 m 1.32292,0 h 0.26458 m 2.91042,0 h 0.79375 m -5.55625,0.26458 h 0.26458 m 1.5875,0 h 0.26458 m -2.11666,0.26459 h 0.26458 m 1.32292,0 h 0.26458 m -1.85208,0.26458 h 0.26458 m 1.5875,0 h 0.26458 m -2.11666,0.26458 h 0.26458 m 1.32292,0 h 0.26458 m -1.85208,0.26459 h 0.26458"
         id="path6"
         style="stroke-width:0.264583" />
      <path
         stroke="#ffffff"
         d="m 683.68082,219.60086 h 3.70416 m -3.70416,0.26459 h 0.26458 m 3.175,0 h 0.26458 m -3.70416,0.26458 h 0.26458 m 3.175,0 h 0.26458 m -3.70416,0.26458 h 0.26458 m 3.175,0 h 0.26458 m -3.70416,0.26459 h 0.26458 m 3.175,0 h 0.26458 m -3.70416,0.26458 h 0.26458 m 3.175,0 h 0.26458 m -3.70416,0.26458 h 0.26458 m 3.175,0 h 0.26458 m -3.70416,0.26459 h 0.26458 m 3.175,0 h 0.26458 m -5.29166,0.26458 h 1.05833 m 0.52917,0 h 0.26458 m 3.175,0 h 0.26458 m -3.70416,0.26458 h 0.26458 m 3.175,0 h 0.26458 m -3.70416,0.26459 h 0.26458 m 3.175,0 h 0.26458 m -3.70416,0.26458 h 3.70416 m -6.87916,0.26458 h 1.32291 m -1.05833,0.79375 h 1.05833 m 1.5875,0 h 0.52917 m 1.5875,0 h 2.38125 m -7.14375,0.26459 h 1.05833 m -1.05833,0.26458 h 1.05833 m -1.05833,0.26458 h 1.05833 m -1.05833,0.26459 h 1.05833 m 4.23334,0 h 0.26458 m -5.55625,0.26458 h 1.05833 m 3.96875,0 h 0.26459 m -5.29167,0.26458 h 0.26458 m 0.26459,0 h 0.26458 m 3.96875,0 h 0.26458 m -4.7625,0.26459 h 0.26459 m 0.26458,0 h 0.26458 m -1.05833,0.26458 h 0.26458 m 0.26459,0 h 0.26458 m -0.52917,0.26458 h 0.26459 m 0.26458,0 h 0.26458 m -1.05833,0.26459 h 0.26458 m 0.26459,0 h 0.26458 m -0.52917,0.26458 h 0.26459 m 0.26458,0 h 0.26458 m -1.05833,0.26458 h 0.26458 m 0.26459,0 h 0.26458 m -0.52917,0.26459 h 0.26459 m 0.26458,0 h 0.26458"
         id="path8"
         style="stroke-width:0.264583" />
      <path
         stroke="#c0c0c0"
         d="m 687.38498,219.60086 h 0.26459 m -0.26459,0.26459 h 0.26459 m -0.26459,0.26458 h 0.26459 m -0.26459,0.26458 h 0.26459 m -0.26459,0.26459 h 0.26459 m -0.26459,0.26458 h 0.26459 m -0.26459,0.26458 h 0.26459 m -0.26459,0.26459 h 0.26459 m -0.26459,0.26458 h 0.26459 m -0.26459,0.26458 h 0.26459 m -0.26459,0.26459 h 0.26459 m -0.26459,0.26458 h 0.26459 m -3.96875,0.26458 h 3.96875 m -0.26459,1.05834 h 0.52917 m -0.52917,0.26458 h 0.26459 m -1.5875,0.26458 h 0.26458 m 0.26458,0 h 1.32292 m -2.11667,0.26459 h 0.26459 m -0.52917,0.26458 h 0.26458 m -1.5875,1.05833 h 0.26459 m -0.52917,0.26459 h 0.26458 m -0.52916,0.26458 h 0.52916 m -0.79375,0.26458 h 0.79375 m -0.79375,0.26459 h 0.52917"
         id="path10"
         style="stroke-width:0.264583" />
      <path
         stroke="#000000"
         d="m 687.91415,219.60086 h 0.26458 m -0.26458,0.26459 h 0.26458 m -0.26458,0.26458 h 0.26458 m -0.26458,0.26458 h 0.26458 m -0.26458,0.26459 h 0.26458 m -0.26458,0.26458 h 0.26458 m -0.26458,0.26458 h 0.26458 m -4.7625,0.26459 h 0.26459 m 4.23333,0 h 0.26458 m -5.02708,0.26458 h 0.26458 m 4.49792,0 h 0.26458 m -5.29166,0.26458 h 0.52916 m 4.49792,0 h 0.26458 m -5.55625,0.26459 h 0.26459 m 0.26458,0 h 0.26458 m 4.49792,0 h 0.26458 m -5.82083,0.26458 h 0.26458 m 0.52917,0 h 0.26458 m 4.49792,0 h 0.26458 m -6.08541,0.26458 h 0.26458 m 0.79375,0 h 0.26458 m 4.49792,0 h 0.26458 m -6.35,0.26459 h 0.26459 m 1.05833,0 h 4.7625 m -6.08542,0.26458 h 0.26459 m 1.05833,0 h 0.26458 m 4.7625,0 h 0.26459 m -6.61459,0.26458 h 0.26459 m 1.05833,0 h 0.26458 m 4.7625,0 h 0.26459 m -6.61459,0.26459 h 0.26459 m 1.05833,0 h 0.26458 m 4.7625,0 h 0.26459 m -6.61459,0.26458 h 0.26459 m 4.23333,0 h 1.05833 m 0.79375,0 h 0.26459 m -6.61459,0.26458 h 0.26459 m 5.82083,0 h 0.26458 m -6.35,0.26459 h 0.26459 m 4.49791,0 h 1.32292 m -6.08542,0.26458 h 0.26459 m -0.26459,0.26458 h 0.26459 m 2.38125,0 h 0.52916 m -3.175,0.26459 h 0.26459 m 2.11666,0 h 0.26459 m 0.52916,0 h 0.26459 m -3.43959,0.26458 h 0.26459 m 2.11666,0 h 0.26459 m 0.52916,0 h 0.26459 m -3.43959,0.26458 h 0.26459 m 2.38125,0 h 0.52916 m -3.175,0.26459 h 0.26459 m -0.26459,0.26458 h 0.26459 m 0.52916,0 h 0.26459 m -1.05834,0.26458 h 0.26459 m 0.26458,0 h 0.26458 m -0.79375,0.26459 h 0.52917 m -1.85208,0.26458 h 1.5875"
         id="path12"
         style="stroke-width:0.264583" />
      <path
         stroke="#000080"
         d="m 683.9454,219.86545 h 3.175 m -3.175,0.26458 h 0.26458 m 2.64584,0 h 0.26458 m -3.175,0.26458 h 0.26458 m 2.64584,0 h 0.26458 m -3.175,0.26459 h 0.26458 m 2.64584,0 h 0.26458 m -3.175,0.26458 h 0.26458 m 2.64584,0 h 0.26458 m -3.175,0.26458 h 0.26458 m 2.64584,0 h 0.26458 m -3.175,0.26459 h 0.26458 m 2.64584,0 h 0.26458 m -3.175,0.26458 h 0.26458 m 2.64584,0 h 0.26458 m -3.175,0.26458 h 0.26458 m 2.64584,0 h 0.26458 m -3.175,0.26459 h 3.175"
         id="path14"
         style="stroke-width:0.264583" />
      <path
         stroke="#66ccff"
         d="m 684.20998,220.13003 h 0.79375 m 1.32292,0 h 0.52917 m -2.64584,0.26458 h 0.52917 m 1.32292,0 h 0.52916 m -2.38125,0.26459 h 0.26459 m 1.32291,0 h 0.52917 m -0.79375,0.26458 h 0.52917 m -0.79375,0.26458 h 0.52916 m -0.79375,0.26459 h 0.52917 m -0.79375,0.26458 h 0.52917 m -0.79375,0.26458 h 0.52916"
         id="path16"
         style="stroke-width:0.264583" />
      <path
         stroke="#33ffff"
         d="m 685.00373,220.13003 h 0.26459 m 0.26458,0 h 0.26458 m -1.05833,0.26458 h 0.26458 m 0.26459,0 h 0.26458 m 0.26458,0 h 0.26459 m -1.5875,0.26459 h 0.26458 m 0.26458,0 h 0.26459 m 0.26458,0 h 0.26458 m -1.5875,0.26458 h 0.26459 m 0.26458,0 h 0.26458 m 0.26459,0 h 0.26458 m -1.05833,0.26458 h 0.26458 m 0.26458,0 h 0.26459 m -1.05834,0.26459 h 0.26459 m 0.26458,0 h 0.26458 m -0.52916,0.26458 h 0.26458"
         id="path18"
         style="stroke-width:0.264583" />
      <path
         stroke="#ccffff"
         d="m 685.26832,220.13003 h 0.26458 m 0.26458,0 h 0.26459 m -1.05834,0.26458 h 0.26459 m 0.26458,0 h 0.26458 m -1.05833,0.26459 h 0.26458 m 0.26459,0 h 0.26458 m -1.05833,0.26458 h 0.26458 m 0.26458,0 h 0.26459 m -1.05834,0.26458 h 0.26459 m 0.26458,0 h 0.26458 m -0.52916,0.26459 h 0.26458 m -0.52917,0.26458 h 0.26459"
         id="path20"
         style="stroke-width:0.264583" />
      <path
         stroke="#00ffff"
         d="m 686.06207,220.13003 h 0.26458 m -2.11667,1.85208 h 0.26459"
         id="path22"
         style="stroke-width:0.264583" />
      <path
         stroke="#0099cc"
         d="m 686.59123,220.39461 h 0.26459 m -0.52917,0.26459 h 0.52917 m -0.79375,0.26458 h 0.79375 m -1.05834,0.26458 h 1.05834 m -1.32292,0.26459 h 1.05833 m -1.32291,0.26458 h 1.05833 m -1.32292,0.26458 h 1.05834 m -1.32292,4.49792 h 0.26458 m 0,0.26458 h 0.26459 m 0,0.26459 h 0.26458 m -0.26458,0.26458 h 0.26458"
         id="path24"
         style="stroke-width:0.264583" />
      <path
         stroke="#3366ff"
         d="m 686.59123,221.45295 h 0.26459 m -0.52917,0.26458 h 0.52917 m -0.79375,0.26458 h 0.79375"
         id="path26"
         style="stroke-width:0.264583" />
      <path
         stroke="#5f5f5f"
         d="m 681.82873,221.98211 h 1.05834 m -1.32292,0.26459 h 1.05833 m -0.79375,0.26458 h 0.52917 m -0.52917,0.26458 h 0.26459 m -1.5875,0.26459 h 1.32291 m 1.32292,1.05833 h 0.26458 m -0.52916,0.26458 h 0.26458 m -0.26458,0.26459 h 0.26458 m -0.52917,0.26458 h 0.26459 m -0.26459,0.26458 h 0.26459 m -0.26459,0.26459 h 0.26459 m -0.26459,0.26458 h 0.26459 m -0.26459,0.26458 h 0.26459 m -0.26459,0.26459 h 0.26459 m 0,0.52916 h 0.26458 m 0,0.26459 h 0.26458 m 0,0.26458 h 0.52917 m 0,0.26458 h 0.79375"
         id="path28"
         style="stroke-width:0.264583" />
      <path
         stroke="#a4a0a0"
         d="m 682.88707,222.2467 h 0.26458 m -0.52917,0.26458 h 0.52917 m -0.79375,0.26458 h 0.79375 m -1.05833,0.26459 h 1.05833 m -1.05833,0.26458 h 1.05833 m -1.05833,0.26458 h 1.05833 m -1.05833,0.26459 h 1.05833 m -1.05833,0.26458 h 1.05833 m 2.64583,0 h 0.26459 m -3.96875,0.26458 h 0.26458 m 0.26458,0 h 0.26459 m 2.64583,0 h 0.52917 m -3.70417,0.26459 h 0.26458 m 2.91042,0 h 0.26458 m -3.70416,0.26458 h 0.26458 m 2.91042,0 h 0.26458 m -3.175,0.26458 h 0.26458 m 2.64584,0 h 0.26458 m -3.43958,0.26459 h 0.26458 m 0,0.26458 h 0.26458 m -0.52916,0.26458 h 0.26458 m 0,0.26459 h 0.26458 m -0.52916,0.26458 h 0.26458"
         id="path30"
         style="stroke-width:0.264583" />
      <path
         stroke="#b2b2b2"
         d="m 687.91415,223.04045 h 0.26458 m -0.52916,0.26458 h 0.26458 m -2.64583,0.52917 h 0.26458 m -0.26458,0.26458 h 0.52916 m 1.85209,0 h 0.26458 m -2.64583,0.26458 h 0.26458 m -0.52917,0.26459 h 0.52917 m -0.52917,0.26458 h 0.26459 m -0.26459,0.26458 h 0.26459 m 0.79375,0 h 0.52916 m -2.91041,0.52917 h 0.52916 m 1.85209,0 h 0.52916 m -3.43958,0.26458 h 1.05833 m 1.5875,0 h 0.79375 m -3.70416,0.26459 h 1.05833 m -0.79375,0.26458 h 0.52917 m -0.52917,0.26458 h 0.26458"
         id="path32"
         style="stroke-width:0.264583" />
      <path
         stroke="#080808"
         d="m 688.17873,223.04045 h 0.26459"
         id="path34"
         style="stroke-width:0.264583" />
      <path
         stroke="#969696"
         d="m 683.9454,223.56961 h 1.05833"
         id="path36"
         style="stroke-width:0.264583" />
      <path
         stroke="#66cc99"
         d="m 683.9454,223.8342 h 0.26458 m -0.26458,0.26458 h 0.26458 m 0,0.52917 h 0.26459"
         id="path38"
         style="stroke-width:0.264583" />
      <path
         stroke="#ffff99"
         d="m 684.20998,223.8342 h 0.26459 m -0.26459,0.26458 h 0.26459 m -0.26459,0.26458 h 0.52917 m -0.26458,0.26459 h 0.26458 m -0.26458,1.85208 h 0.26458 m -0.26458,0.26458 h 0.26458 m -0.26458,0.26459 h 0.26458 m -0.26458,0.26458 h 0.26458"
         id="path40"
         style="stroke-width:0.264583" />
      <path
         stroke="#cccc66"
         d="m 684.47457,223.8342 h 0.79375 m -0.79375,0.26458 h 0.79375 m -0.52917,0.26458 h 0.52917 m -0.52917,0.26459 h 0.26458 m -0.26458,0.26458 h 0.26458"
         id="path42"
         style="stroke-width:0.264583" />
      <path
         stroke="#333333"
         d="m 685.5329,223.8342 h 0.52917 m 0,0.26458 h 0.26458 m 0,0.26458 h 0.26458 m -0.26458,0.26459 h 0.26458 m 0,0.26458 h 0.26459 m -0.26459,0.26458 h 0.26459 m -0.26459,0.26459 h 0.26459 m -0.26459,0.26458 h 0.26459 m -0.26459,0.26458 h 0.26459 m -0.26459,0.26459 h 0.26459 m -0.52917,0.26458 h 0.26458 m -0.26458,0.26458 h 0.26458 m -0.52916,0.26459 h 0.26458 m -0.79375,0.26458 h 0.52917 m -1.32292,0.26458 h 0.79375"
         id="path44"
         style="stroke-width:0.264583" />
      <path
         stroke="#3399cc"
         d="m 683.41623,224.09878 h 0.26459 m -0.26459,0.26458 h 0.52917 m -0.26458,0.26459 h 0.26458 m 0,0.26458 h 0.26458"
         id="path46"
         style="stroke-width:0.264583" />
      <path
         stroke="#669999"
         d="m 683.68082,224.09878 h 0.26458 m 0,0.26458 h 0.26458 m -0.26458,0.26459 h 0.26458 m 0,0.26458 h 0.52917"
         id="path48"
         style="stroke-width:0.264583" />
      <path
         stroke="#33cccc"
         d="m 683.15165,224.36336 h 0.26458 m -0.26458,0.26459 h 0.52917 m -0.26459,0.26458 h 0.52917 m 0,0.26458 h 0.52917 m 0.26458,1.5875 h 0.26458 m 0,0.26459 h 0.26459 m -0.26459,0.26458 h 0.26459"
         id="path50"
         style="stroke-width:0.264583" />
      <path
         stroke="#e3e3e3"
         d="m 682.88707,224.89253 h 0.26458 m -0.26458,0.26458 h 0.52916 m 1.5875,0.79375 h 0.79375 m -0.52916,0.26459 h 1.32291 m -0.79375,0.26458 h 0.52917"
         id="path52"
         style="stroke-width:0.264583" />
      <path
         stroke="#99ffcc"
         d="m 683.15165,224.89253 h 0.26458 m 0,0.26458 h 0.52917 m 1.05833,1.05834 h 0.26459 m 0,0.26458 h 0.52916 m -0.26458,0.26458 h 0.79375 m -0.52917,0.26459 h 0.26459"
         id="path54"
         style="stroke-width:0.264583" />
      <path
         stroke="#d7d7d7"
         d="m 686.06207,224.89253 h 0.52916 m -0.79375,0.26458 h 0.26459 m -0.79375,0.26459 h 0.52916"
         id="path56"
         style="stroke-width:0.264583" />
      <path
         stroke="#cccccc"
         d="m 681.03498,225.15711 h 0.26459 m 0.26458,0 h 0.26458 m -1.05833,0.26459 h 0.26458 m 0.26459,0 h 0.26458 m -0.52917,0.26458 h 0.26459 m 0.26458,0 h 0.26458 m 1.05834,0 h 0.79375 m -2.91042,0.26458 h 0.26458 m 0.26459,0 h 0.26458 m 1.32292,0 h 0.26458 m -2.11667,0.26459 h 0.26459 m 0.26458,0 h 0.26458 m -1.05833,0.26458 h 0.26458 m 0.26459,0 h 0.26458 m -0.52917,0.26458 h 0.26459 m 0.26458,0 h 0.26458 m -1.05833,0.26459 h 0.26458 m 0.26459,0 h 0.26458"
         id="path58"
         style="stroke-width:0.264583" />
      <path
         stroke="#999999"
         d="m 682.88707,225.4217 h 1.32291"
         id="path60"
         style="stroke-width:0.264583" />
      <path
         stroke="#cccc99"
         d="m 684.20998,226.21545 h 0.52917 m -0.52917,0.26458 h 0.26459 m -0.26459,0.26458 h 0.26459 m -0.52917,0.26459 h 0.52917 m -0.52917,0.26458 h 0.52917"
         id="path62"
         style="stroke-width:0.264583" />
      <path
         stroke="#009999"
         d="m 684.73915,226.21545 h 0.26458 m 0,0.26458 h 0.26459 m 0,0.26458 h 0.26458 m 0,0.26459 h 0.26458"
         id="path64"
         style="stroke-width:0.264583" />
      <path
         stroke="#ccffcc"
         d="m 684.73915,227.0092 h 0.26458 m -0.26458,0.26458 h 0.26458"
         id="path66"
         style="stroke-width:0.264583" />
    </g>
    <text
       xml:space="preserve"
       id="text1152"
       style="font-style:normal;font-weight:normal;font-size:10.5833px;line-height:1.25;font-family:sans-serif;white-space:pre;shape-inside:url(#rect1154);fill:#000000;fill-opacity:1;stroke:none;"
       transform="translate(255.13393,22.300595)"><tspan
         x="-415.77344"
         y="188.14694"><tspan>Setup Icon</tspan></tspan></text>
    <text
       xml:space="preserve"
       id="text1152-6"
       style="font-style:normal;font-weight:normal;font-size:10.5833px;line-height:1.25;font-family:sans-serif;white-space:pre;shape-inside:url(#rect1154-4);fill:#000000;fill-opacity:1;stroke:none;"
       transform="translate(279.75184,-174.62948)"><tspan
         x="-415.77344"
         y="188.14694"><tspan>Concept</tspan></tspan></text>
    <text
       xml:space="preserve"
       id="text1152-6-7"
       style="font-style:normal;font-weight:normal;font-size:10.5833px;line-height:1.25;font-family:sans-serif;white-space:pre;shape-inside:url(#rect1154-4-5);fill:#000000;fill-opacity:1;stroke:none;"
       transform="translate(419.91042,-175.16401)"><tspan
         x="-415.77344"
         y="188.14694"><tspan>Lobes Only</tspan></tspan></text>
    <text
       xml:space="preserve"
       id="text1152-6-7-1"
       style="font-style:normal;font-weight:normal;font-size:10.5833px;line-height:1.25;font-family:sans-serif;white-space:pre;shape-inside:url(#rect1154-4-5-0);fill:#000000;fill-opacity:1;stroke:none;"
       transform="translate(570.56083,-179.88184)"><tspan
         x="-415.77344"
         y="188.14694"><tspan>Paths</tspan></tspan></text>
  </g>
</svg>
